<mxfile host="app.diagrams.net" modified="2023-06-01T16:00:40.031Z" agent="Mozilla/5.0 (Windows NT 10.0; Win64; x64) AppleWebKit/537.36 (KHTML, like Gecko) Chrome/113.0.0.0 Safari/537.36" etag="JBUyK1IFYUO5iYe8xbl3" version="21.3.6" type="device">
  <diagram name="Страница 1" id="98wJvIp_JpZmF4uTAhvg">
    <mxGraphModel dx="772" dy="786" grid="1" gridSize="10" guides="1" tooltips="1" connect="1" arrows="1" fold="1" page="1" pageScale="1" pageWidth="827" pageHeight="1169" math="0" shadow="0">
      <root>
        <mxCell id="0" />
        <mxCell id="1" parent="0" />
        <mxCell id="OSwp55n9crZKd3tJ9F9M-2" value="Покупатель&lt;br&gt;" style="shape=umlActor;verticalLabelPosition=bottom;verticalAlign=top;html=1;outlineConnect=0;" vertex="1" parent="1">
          <mxGeometry x="90" y="240" width="30" height="60" as="geometry" />
        </mxCell>
        <mxCell id="OSwp55n9crZKd3tJ9F9M-5" value="" style="endArrow=none;html=1;rounded=0;exitX=0.5;exitY=0.5;exitDx=0;exitDy=0;exitPerimeter=0;" edge="1" parent="1" source="OSwp55n9crZKd3tJ9F9M-2">
          <mxGeometry width="50" height="50" relative="1" as="geometry">
            <mxPoint x="120" y="290" as="sourcePoint" />
            <mxPoint x="200" y="270" as="targetPoint" />
          </mxGeometry>
        </mxCell>
        <mxCell id="OSwp55n9crZKd3tJ9F9M-6" value="Выбор товара" style="ellipse;whiteSpace=wrap;html=1;fillColor=none;" vertex="1" parent="1">
          <mxGeometry x="200" y="240" width="130" height="60" as="geometry" />
        </mxCell>
        <mxCell id="OSwp55n9crZKd3tJ9F9M-7" value="" style="endArrow=none;dashed=1;html=1;dashPattern=1 3;strokeWidth=2;rounded=0;" edge="1" parent="1">
          <mxGeometry width="50" height="50" relative="1" as="geometry">
            <mxPoint x="330" y="280" as="sourcePoint" />
            <mxPoint x="420" y="330" as="targetPoint" />
          </mxGeometry>
        </mxCell>
        <mxCell id="OSwp55n9crZKd3tJ9F9M-8" value="Добавление в корзину" style="ellipse;whiteSpace=wrap;html=1;fillColor=none;" vertex="1" parent="1">
          <mxGeometry x="414" y="300" width="120" height="60" as="geometry" />
        </mxCell>
        <mxCell id="OSwp55n9crZKd3tJ9F9M-9" value="&amp;lt;&amp;lt;include" style="text;html=1;align=center;verticalAlign=middle;resizable=0;points=[];autosize=1;strokeColor=none;fillColor=none;" vertex="1" parent="1">
          <mxGeometry x="350" y="268" width="80" height="30" as="geometry" />
        </mxCell>
        <mxCell id="OSwp55n9crZKd3tJ9F9M-10" value="" style="endArrow=none;dashed=1;html=1;dashPattern=1 3;strokeWidth=2;rounded=0;entryX=0.438;entryY=0.967;entryDx=0;entryDy=0;entryPerimeter=0;" edge="1" parent="1" target="OSwp55n9crZKd3tJ9F9M-6">
          <mxGeometry width="50" height="50" relative="1" as="geometry">
            <mxPoint x="257" y="400" as="sourcePoint" />
            <mxPoint x="390" y="380" as="targetPoint" />
          </mxGeometry>
        </mxCell>
        <mxCell id="OSwp55n9crZKd3tJ9F9M-11" value="Поиск книги по автору" style="ellipse;whiteSpace=wrap;html=1;fillColor=none;" vertex="1" parent="1">
          <mxGeometry x="205" y="400" width="120" height="80" as="geometry" />
        </mxCell>
        <mxCell id="OSwp55n9crZKd3tJ9F9M-12" value="Выбрать год издания книги, автора, издательство" style="ellipse;whiteSpace=wrap;html=1;fillColor=none;" vertex="1" parent="1">
          <mxGeometry x="30" y="400" width="120" height="80" as="geometry" />
        </mxCell>
        <mxCell id="OSwp55n9crZKd3tJ9F9M-13" value="" style="endArrow=none;dashed=1;html=1;dashPattern=1 3;strokeWidth=2;rounded=0;exitX=1;exitY=0.5;exitDx=0;exitDy=0;entryX=0;entryY=0.5;entryDx=0;entryDy=0;" edge="1" parent="1" source="OSwp55n9crZKd3tJ9F9M-12" target="OSwp55n9crZKd3tJ9F9M-11">
          <mxGeometry width="50" height="50" relative="1" as="geometry">
            <mxPoint x="160" y="480" as="sourcePoint" />
            <mxPoint x="210" y="430" as="targetPoint" />
          </mxGeometry>
        </mxCell>
        <mxCell id="OSwp55n9crZKd3tJ9F9M-14" value="Поиск по каталогу" style="ellipse;whiteSpace=wrap;html=1;fillColor=none;" vertex="1" parent="1">
          <mxGeometry x="70" y="520" width="120" height="80" as="geometry" />
        </mxCell>
        <mxCell id="OSwp55n9crZKd3tJ9F9M-15" value="" style="endArrow=classic;html=1;rounded=0;exitX=1;exitY=0;exitDx=0;exitDy=0;" edge="1" parent="1" source="OSwp55n9crZKd3tJ9F9M-14">
          <mxGeometry width="50" height="50" relative="1" as="geometry">
            <mxPoint x="180" y="520" as="sourcePoint" />
            <mxPoint x="230" y="470" as="targetPoint" />
          </mxGeometry>
        </mxCell>
        <mxCell id="OSwp55n9crZKd3tJ9F9M-16" value="Поиск по названию" style="ellipse;whiteSpace=wrap;html=1;" vertex="1" parent="1">
          <mxGeometry x="354" y="480" width="120" height="80" as="geometry" />
        </mxCell>
        <mxCell id="OSwp55n9crZKd3tJ9F9M-17" value="" style="endArrow=classic;html=1;rounded=0;exitX=0.05;exitY=0.375;exitDx=0;exitDy=0;exitPerimeter=0;" edge="1" parent="1" source="OSwp55n9crZKd3tJ9F9M-16" target="OSwp55n9crZKd3tJ9F9M-11">
          <mxGeometry width="50" height="50" relative="1" as="geometry">
            <mxPoint x="330" y="510" as="sourcePoint" />
            <mxPoint x="380" y="460" as="targetPoint" />
          </mxGeometry>
        </mxCell>
        <mxCell id="OSwp55n9crZKd3tJ9F9M-18" value="Выбор адрес получения книги" style="ellipse;whiteSpace=wrap;html=1;fillColor=none;" vertex="1" parent="1">
          <mxGeometry x="294" y="80" width="146" height="70" as="geometry" />
        </mxCell>
        <mxCell id="OSwp55n9crZKd3tJ9F9M-20" value="" style="endArrow=none;dashed=1;html=1;dashPattern=1 3;strokeWidth=2;rounded=0;entryX=0.342;entryY=1;entryDx=0;entryDy=0;entryPerimeter=0;exitX=1;exitY=0;exitDx=0;exitDy=0;" edge="1" parent="1" source="OSwp55n9crZKd3tJ9F9M-6" target="OSwp55n9crZKd3tJ9F9M-18">
          <mxGeometry width="50" height="50" relative="1" as="geometry">
            <mxPoint x="310" y="240" as="sourcePoint" />
            <mxPoint x="360" y="190" as="targetPoint" />
          </mxGeometry>
        </mxCell>
        <mxCell id="OSwp55n9crZKd3tJ9F9M-21" value="&amp;lt;&amp;lt;include" style="text;html=1;align=center;verticalAlign=middle;resizable=0;points=[];autosize=1;strokeColor=none;fillColor=none;" vertex="1" parent="1">
          <mxGeometry x="120" y="378" width="80" height="30" as="geometry" />
        </mxCell>
        <mxCell id="OSwp55n9crZKd3tJ9F9M-23" value="&amp;nbsp;&amp;lt;&amp;lt;include" style="text;html=1;align=center;verticalAlign=middle;resizable=0;points=[];autosize=1;strokeColor=none;fillColor=none;" vertex="1" parent="1">
          <mxGeometry x="250" y="348" width="80" height="30" as="geometry" />
        </mxCell>
        <mxCell id="OSwp55n9crZKd3tJ9F9M-24" value="&amp;lt;&amp;lt;include" style="text;html=1;align=center;verticalAlign=middle;resizable=0;points=[];autosize=1;strokeColor=none;fillColor=none;" vertex="1" parent="1">
          <mxGeometry x="325" y="178" width="80" height="30" as="geometry" />
        </mxCell>
      </root>
    </mxGraphModel>
  </diagram>
</mxfile>
